<mxfile host="Electron" modified="2023-06-28T04:12:11.751Z" agent="Mozilla/5.0 (Windows NT 10.0; Win64; x64) AppleWebKit/537.36 (KHTML, like Gecko) draw.io/21.2.8 Chrome/112.0.5615.165 Electron/24.2.0 Safari/537.36" etag="rjLIK0wg6cGYE-HAW5YG" version="21.2.8" type="device">
  <diagram id="R2lEEEUBdFMjLlhIrx00" name="Page-1">
    <mxGraphModel dx="1457" dy="720" grid="1" gridSize="10" guides="1" tooltips="1" connect="1" arrows="1" fold="1" page="1" pageScale="1" pageWidth="850" pageHeight="1100" background="none" math="0" shadow="0" extFonts="Permanent Marker^https://fonts.googleapis.com/css?family=Permanent+Marker">
      <root>
        <mxCell id="0" />
        <mxCell id="1" parent="0" />
        <mxCell id="rDm6z0ZIHg8vzIxjKDyd-1" value="&lt;font face=&quot;Times New Roman&quot;&gt;USER&lt;/font&gt;" style="whiteSpace=wrap;html=1;align=center;fillColor=#fff2cc;strokeColor=#d6b656;" parent="1" vertex="1">
          <mxGeometry x="585" y="252.5" width="100" height="40" as="geometry" />
        </mxCell>
        <mxCell id="rDm6z0ZIHg8vzIxjKDyd-2" value="&lt;b&gt;user name&lt;/b&gt;" style="ellipse;whiteSpace=wrap;html=1;align=center;fontStyle=4;fillColor=#f8cecc;strokeColor=#b85450;" parent="1" vertex="1">
          <mxGeometry x="585" y="152.5" width="100" height="40" as="geometry" />
        </mxCell>
        <mxCell id="rDm6z0ZIHg8vzIxjKDyd-4" value="address" style="ellipse;whiteSpace=wrap;html=1;align=center;fillColor=#dae8fc;strokeColor=#6c8ebf;" parent="1" vertex="1">
          <mxGeometry x="965" y="697.5" width="100" height="40" as="geometry" />
        </mxCell>
        <mxCell id="rDm6z0ZIHg8vzIxjKDyd-5" value="name" style="ellipse;whiteSpace=wrap;html=1;align=center;fillColor=#dae8fc;strokeColor=#6c8ebf;" parent="1" vertex="1">
          <mxGeometry x="595" y="657.5" width="100" height="40" as="geometry" />
        </mxCell>
        <mxCell id="rDm6z0ZIHg8vzIxjKDyd-6" value="password" style="ellipse;whiteSpace=wrap;html=1;align=center;fillColor=#dae8fc;strokeColor=#6c8ebf;" parent="1" vertex="1">
          <mxGeometry x="705" y="152.5" width="100" height="40" as="geometry" />
        </mxCell>
        <mxCell id="rDm6z0ZIHg8vzIxjKDyd-7" value="gender" style="ellipse;whiteSpace=wrap;html=1;align=center;fillColor=#dae8fc;strokeColor=#6c8ebf;" parent="1" vertex="1">
          <mxGeometry x="915" y="737.5" width="100" height="40" as="geometry" />
        </mxCell>
        <mxCell id="rDm6z0ZIHg8vzIxjKDyd-8" value="blood group" style="ellipse;whiteSpace=wrap;html=1;align=center;fillColor=#dae8fc;strokeColor=#6c8ebf;" parent="1" vertex="1">
          <mxGeometry x="1015" y="657.5" width="100" height="40" as="geometry" />
        </mxCell>
        <mxCell id="rDm6z0ZIHg8vzIxjKDyd-9" value="age" style="ellipse;whiteSpace=wrap;html=1;align=center;fillColor=#dae8fc;strokeColor=#6c8ebf;" parent="1" vertex="1">
          <mxGeometry x="645" y="697.5" width="100" height="40" as="geometry" />
        </mxCell>
        <mxCell id="rDm6z0ZIHg8vzIxjKDyd-10" value="phone no" style="ellipse;shape=doubleEllipse;margin=3;whiteSpace=wrap;html=1;align=center;fillColor=#dae8fc;strokeColor=#6c8ebf;" parent="1" vertex="1">
          <mxGeometry x="695" y="737.5" width="100" height="40" as="geometry" />
        </mxCell>
        <mxCell id="rDm6z0ZIHg8vzIxjKDyd-17" value="&lt;font style=&quot;font-size: 12px;&quot; face=&quot;Times New Roman&quot;&gt;APPOINTMENT&lt;/font&gt;" style="whiteSpace=wrap;html=1;align=center;fillColor=#fff2cc;strokeColor=#d6b656;" parent="1" vertex="1">
          <mxGeometry x="1425" y="235" width="100" height="40" as="geometry" />
        </mxCell>
        <mxCell id="rDm6z0ZIHg8vzIxjKDyd-23" value="&lt;b&gt;appointment id&lt;/b&gt;" style="ellipse;whiteSpace=wrap;html=1;align=center;fontStyle=4;fillColor=#f8cecc;strokeColor=#b85450;" parent="1" vertex="1">
          <mxGeometry x="1425" y="105" width="100" height="40" as="geometry" />
        </mxCell>
        <mxCell id="rDm6z0ZIHg8vzIxjKDyd-24" value="doctor id" style="ellipse;whiteSpace=wrap;html=1;align=center;fillColor=#dae8fc;strokeColor=#6c8ebf;" parent="1" vertex="1">
          <mxGeometry x="1205" y="105" width="100" height="40" as="geometry" />
        </mxCell>
        <mxCell id="rDm6z0ZIHg8vzIxjKDyd-25" value="app_time" style="ellipse;whiteSpace=wrap;html=1;align=center;fillColor=#dae8fc;strokeColor=#6c8ebf;" parent="1" vertex="1">
          <mxGeometry x="1545" y="105" width="100" height="40" as="geometry" />
        </mxCell>
        <mxCell id="rDm6z0ZIHg8vzIxjKDyd-26" value="app_date" style="ellipse;whiteSpace=wrap;html=1;align=center;fillColor=#dae8fc;strokeColor=#6c8ebf;" parent="1" vertex="1">
          <mxGeometry x="1665" y="105" width="100" height="40" as="geometry" />
        </mxCell>
        <mxCell id="rDm6z0ZIHg8vzIxjKDyd-27" value="patient id" style="ellipse;whiteSpace=wrap;html=1;align=center;fillColor=#dae8fc;strokeColor=#6c8ebf;" parent="1" vertex="1">
          <mxGeometry x="1315" y="105" width="100" height="40" as="geometry" />
        </mxCell>
        <mxCell id="rDm6z0ZIHg8vzIxjKDyd-29" value="&lt;font face=&quot;Times New Roman&quot;&gt;DOCTOR&lt;/font&gt;" style="whiteSpace=wrap;html=1;align=center;fillColor=#fff2cc;strokeColor=#d6b656;" parent="1" vertex="1">
          <mxGeometry x="1945" y="537.5" width="100" height="40" as="geometry" />
        </mxCell>
        <mxCell id="rDm6z0ZIHg8vzIxjKDyd-33" value="&lt;b&gt;doctor id&lt;/b&gt;" style="ellipse;whiteSpace=wrap;html=1;align=center;fontStyle=4;fillColor=#f8cecc;strokeColor=#b85450;" parent="1" vertex="1">
          <mxGeometry x="2185" y="537.5" width="100" height="40" as="geometry" />
        </mxCell>
        <mxCell id="rDm6z0ZIHg8vzIxjKDyd-34" value="doctor name" style="ellipse;whiteSpace=wrap;html=1;align=center;fillColor=#dae8fc;strokeColor=#6c8ebf;" parent="1" vertex="1">
          <mxGeometry x="2185" y="437.5" width="100" height="40" as="geometry" />
        </mxCell>
        <mxCell id="rDm6z0ZIHg8vzIxjKDyd-35" value="specialisation" style="ellipse;whiteSpace=wrap;html=1;align=center;fillColor=#dae8fc;strokeColor=#6c8ebf;" parent="1" vertex="1">
          <mxGeometry x="2185" y="487.5" width="100" height="40" as="geometry" />
        </mxCell>
        <mxCell id="rDm6z0ZIHg8vzIxjKDyd-46" value="&lt;font face=&quot;Times New Roman&quot;&gt;RATING&lt;/font&gt;" style="rounded=1;arcSize=10;whiteSpace=wrap;html=1;align=center;fillColor=#fff2cc;strokeColor=#d6b656;" parent="1" vertex="1">
          <mxGeometry x="1425" y="835" width="100" height="40" as="geometry" />
        </mxCell>
        <mxCell id="rDm6z0ZIHg8vzIxjKDyd-54" value="&lt;b&gt;rating id&lt;/b&gt;" style="ellipse;whiteSpace=wrap;html=1;align=center;fontStyle=4;fillColor=#f8cecc;strokeColor=#b85450;" parent="1" vertex="1">
          <mxGeometry x="1425" y="955" width="100" height="40" as="geometry" />
        </mxCell>
        <mxCell id="rDm6z0ZIHg8vzIxjKDyd-56" value="doctor id" style="ellipse;whiteSpace=wrap;html=1;align=center;fillColor=#dae8fc;strokeColor=#6c8ebf;" parent="1" vertex="1">
          <mxGeometry x="1185" y="955" width="100" height="40" as="geometry" />
        </mxCell>
        <mxCell id="rDm6z0ZIHg8vzIxjKDyd-57" value="patient id" style="ellipse;whiteSpace=wrap;html=1;align=center;fillColor=#dae8fc;strokeColor=#6c8ebf;" parent="1" vertex="1">
          <mxGeometry x="1305" y="955" width="100" height="40" as="geometry" />
        </mxCell>
        <mxCell id="rDm6z0ZIHg8vzIxjKDyd-58" value="rating" style="ellipse;whiteSpace=wrap;html=1;align=center;fillColor=#dae8fc;strokeColor=#6c8ebf;" parent="1" vertex="1">
          <mxGeometry x="1545" y="955" width="100" height="40" as="geometry" />
        </mxCell>
        <mxCell id="rDm6z0ZIHg8vzIxjKDyd-59" value="feedback" style="ellipse;whiteSpace=wrap;html=1;align=center;fillColor=#dae8fc;strokeColor=#6c8ebf;" parent="1" vertex="1">
          <mxGeometry x="1665" y="955" width="100" height="40" as="geometry" />
        </mxCell>
        <mxCell id="z6RoNg9yZjQIcF7Bu9v4-1" value="gender" style="ellipse;whiteSpace=wrap;html=1;align=center;fillColor=#dae8fc;strokeColor=#6c8ebf;" parent="1" vertex="1">
          <mxGeometry x="2185" y="587.5" width="100" height="40" as="geometry" />
        </mxCell>
        <mxCell id="z6RoNg9yZjQIcF7Bu9v4-2" value="phone no" style="ellipse;whiteSpace=wrap;html=1;align=center;fillColor=#dae8fc;strokeColor=#6c8ebf;" parent="1" vertex="1">
          <mxGeometry x="2185" y="637.5" width="100" height="40" as="geometry" />
        </mxCell>
        <mxCell id="z6RoNg9yZjQIcF7Bu9v4-8" value="role" style="ellipse;whiteSpace=wrap;html=1;align=center;fillColor=#dae8fc;strokeColor=#6c8ebf;" parent="1" vertex="1">
          <mxGeometry x="465" y="152.5" width="100" height="40" as="geometry" />
        </mxCell>
        <mxCell id="z6RoNg9yZjQIcF7Bu9v4-14" value="&lt;font face=&quot;Times New Roman&quot;&gt;PATIENT&lt;/font&gt;" style="whiteSpace=wrap;html=1;align=center;fillColor=#fff2cc;strokeColor=#d6b656;" parent="1" vertex="1">
          <mxGeometry x="805" y="537.5" width="100" height="40" as="geometry" />
        </mxCell>
        <mxCell id="z6RoNg9yZjQIcF7Bu9v4-19" value="" style="endArrow=none;html=1;rounded=0;exitX=0.5;exitY=1;exitDx=0;exitDy=0;entryX=1;entryY=0;entryDx=0;entryDy=0;" parent="1" source="z6RoNg9yZjQIcF7Bu9v4-14" target="rDm6z0ZIHg8vzIxjKDyd-5" edge="1">
          <mxGeometry width="50" height="50" relative="1" as="geometry">
            <mxPoint x="1075" y="497.5" as="sourcePoint" />
            <mxPoint x="805" y="627.5" as="targetPoint" />
          </mxGeometry>
        </mxCell>
        <mxCell id="z6RoNg9yZjQIcF7Bu9v4-20" value="" style="endArrow=none;html=1;rounded=0;entryX=1;entryY=0;entryDx=0;entryDy=0;" parent="1" target="rDm6z0ZIHg8vzIxjKDyd-9" edge="1">
          <mxGeometry width="50" height="50" relative="1" as="geometry">
            <mxPoint x="855" y="577.5" as="sourcePoint" />
            <mxPoint x="1125" y="447.5" as="targetPoint" />
          </mxGeometry>
        </mxCell>
        <mxCell id="z6RoNg9yZjQIcF7Bu9v4-21" value="" style="endArrow=none;html=1;rounded=0;exitX=0.5;exitY=1;exitDx=0;exitDy=0;entryX=1;entryY=0;entryDx=0;entryDy=0;" parent="1" source="z6RoNg9yZjQIcF7Bu9v4-14" target="rDm6z0ZIHg8vzIxjKDyd-10" edge="1">
          <mxGeometry width="50" height="50" relative="1" as="geometry">
            <mxPoint x="895" y="627.5" as="sourcePoint" />
            <mxPoint x="875" y="647.5" as="targetPoint" />
          </mxGeometry>
        </mxCell>
        <mxCell id="z6RoNg9yZjQIcF7Bu9v4-24" value="" style="endArrow=none;html=1;rounded=0;entryX=0;entryY=0;entryDx=0;entryDy=0;" parent="1" target="rDm6z0ZIHg8vzIxjKDyd-7" edge="1">
          <mxGeometry width="50" height="50" relative="1" as="geometry">
            <mxPoint x="855" y="577.5" as="sourcePoint" />
            <mxPoint x="1125" y="447.5" as="targetPoint" />
          </mxGeometry>
        </mxCell>
        <mxCell id="z6RoNg9yZjQIcF7Bu9v4-25" value="" style="endArrow=none;html=1;rounded=0;entryX=0;entryY=0;entryDx=0;entryDy=0;" parent="1" target="rDm6z0ZIHg8vzIxjKDyd-4" edge="1">
          <mxGeometry width="50" height="50" relative="1" as="geometry">
            <mxPoint x="855" y="577.5" as="sourcePoint" />
            <mxPoint x="1155" y="517.5" as="targetPoint" />
          </mxGeometry>
        </mxCell>
        <mxCell id="z6RoNg9yZjQIcF7Bu9v4-26" value="" style="endArrow=none;html=1;rounded=0;exitX=0.5;exitY=1;exitDx=0;exitDy=0;entryX=0;entryY=0;entryDx=0;entryDy=0;" parent="1" source="z6RoNg9yZjQIcF7Bu9v4-14" target="rDm6z0ZIHg8vzIxjKDyd-8" edge="1">
          <mxGeometry width="50" height="50" relative="1" as="geometry">
            <mxPoint x="1085" y="567.5" as="sourcePoint" />
            <mxPoint x="1135" y="517.5" as="targetPoint" />
          </mxGeometry>
        </mxCell>
        <mxCell id="z6RoNg9yZjQIcF7Bu9v4-28" value="" style="endArrow=none;html=1;rounded=0;exitX=0.5;exitY=0;exitDx=0;exitDy=0;entryX=0;entryY=1;entryDx=0;entryDy=0;" parent="1" source="rDm6z0ZIHg8vzIxjKDyd-1" target="rDm6z0ZIHg8vzIxjKDyd-6" edge="1">
          <mxGeometry width="50" height="50" relative="1" as="geometry">
            <mxPoint x="855" y="292.5" as="sourcePoint" />
            <mxPoint x="905" y="242.5" as="targetPoint" />
          </mxGeometry>
        </mxCell>
        <mxCell id="z6RoNg9yZjQIcF7Bu9v4-29" value="" style="endArrow=none;html=1;rounded=0;exitX=0.5;exitY=0;exitDx=0;exitDy=0;entryX=0.5;entryY=1;entryDx=0;entryDy=0;" parent="1" source="rDm6z0ZIHg8vzIxjKDyd-1" target="rDm6z0ZIHg8vzIxjKDyd-2" edge="1">
          <mxGeometry width="50" height="50" relative="1" as="geometry">
            <mxPoint x="855" y="292.5" as="sourcePoint" />
            <mxPoint x="905" y="242.5" as="targetPoint" />
          </mxGeometry>
        </mxCell>
        <mxCell id="z6RoNg9yZjQIcF7Bu9v4-31" value="" style="endArrow=none;html=1;rounded=0;exitX=0.5;exitY=0;exitDx=0;exitDy=0;entryX=1;entryY=1;entryDx=0;entryDy=0;" parent="1" source="rDm6z0ZIHg8vzIxjKDyd-1" target="z6RoNg9yZjQIcF7Bu9v4-8" edge="1">
          <mxGeometry width="50" height="50" relative="1" as="geometry">
            <mxPoint x="855" y="292.5" as="sourcePoint" />
            <mxPoint x="905" y="242.5" as="targetPoint" />
          </mxGeometry>
        </mxCell>
        <mxCell id="z6RoNg9yZjQIcF7Bu9v4-32" value="&lt;font face=&quot;Times New Roman&quot;&gt;ADMIN&lt;/font&gt;" style="whiteSpace=wrap;html=1;align=center;fillColor=#fff2cc;strokeColor=#d6b656;" parent="1" vertex="1">
          <mxGeometry x="365" y="537.5" width="100" height="40" as="geometry" />
        </mxCell>
        <mxCell id="z6RoNg9yZjQIcF7Bu9v4-33" value="name" style="ellipse;whiteSpace=wrap;html=1;align=center;fillColor=#dae8fc;strokeColor=#6c8ebf;" parent="1" vertex="1">
          <mxGeometry x="265" y="667.5" width="100" height="40" as="geometry" />
        </mxCell>
        <mxCell id="z6RoNg9yZjQIcF7Bu9v4-35" value="patient id" style="ellipse;whiteSpace=wrap;html=1;align=center;fontStyle=4;fillColor=#f8cecc;strokeColor=#b85450;" parent="1" vertex="1">
          <mxGeometry x="805" y="747.5" width="100" height="40" as="geometry" />
        </mxCell>
        <mxCell id="z6RoNg9yZjQIcF7Bu9v4-36" value="" style="endArrow=none;html=1;rounded=0;entryX=0.5;entryY=0;entryDx=0;entryDy=0;" parent="1" target="z6RoNg9yZjQIcF7Bu9v4-35" edge="1">
          <mxGeometry relative="1" as="geometry">
            <mxPoint x="855" y="577.5" as="sourcePoint" />
            <mxPoint x="975" y="657.5" as="targetPoint" />
          </mxGeometry>
        </mxCell>
        <mxCell id="z6RoNg9yZjQIcF7Bu9v4-37" value="Is A" style="triangle;whiteSpace=wrap;html=1;direction=south;fillColor=#d5e8d4;strokeColor=#82b366;" parent="1" vertex="1">
          <mxGeometry x="595" y="352.5" width="80" height="60" as="geometry" />
        </mxCell>
        <mxCell id="z6RoNg9yZjQIcF7Bu9v4-38" value="admin id" style="ellipse;whiteSpace=wrap;html=1;align=center;fontStyle=4;fillColor=#f8cecc;strokeColor=#b85450;" parent="1" vertex="1">
          <mxGeometry x="465" y="667.5" width="100" height="40" as="geometry" />
        </mxCell>
        <mxCell id="z6RoNg9yZjQIcF7Bu9v4-39" value="" style="endArrow=none;html=1;rounded=0;entryX=0.5;entryY=1;entryDx=0;entryDy=0;exitX=0;exitY=0.5;exitDx=0;exitDy=0;" parent="1" source="z6RoNg9yZjQIcF7Bu9v4-37" target="rDm6z0ZIHg8vzIxjKDyd-1" edge="1">
          <mxGeometry width="50" height="50" relative="1" as="geometry">
            <mxPoint x="825" y="382.5" as="sourcePoint" />
            <mxPoint x="875" y="332.5" as="targetPoint" />
          </mxGeometry>
        </mxCell>
        <mxCell id="z6RoNg9yZjQIcF7Bu9v4-40" value="" style="endArrow=none;html=1;rounded=0;exitX=0.5;exitY=1;exitDx=0;exitDy=0;entryX=0.5;entryY=0;entryDx=0;entryDy=0;" parent="1" source="z6RoNg9yZjQIcF7Bu9v4-37" target="z6RoNg9yZjQIcF7Bu9v4-32" edge="1">
          <mxGeometry width="50" height="50" relative="1" as="geometry">
            <mxPoint x="645" y="372.5" as="sourcePoint" />
            <mxPoint x="695" y="322.5" as="targetPoint" />
          </mxGeometry>
        </mxCell>
        <mxCell id="z6RoNg9yZjQIcF7Bu9v4-41" value="" style="endArrow=none;html=1;rounded=0;exitX=0.5;exitY=0;exitDx=0;exitDy=0;entryX=0.5;entryY=0;entryDx=0;entryDy=0;" parent="1" source="z6RoNg9yZjQIcF7Bu9v4-37" target="z6RoNg9yZjQIcF7Bu9v4-14" edge="1">
          <mxGeometry width="50" height="50" relative="1" as="geometry">
            <mxPoint x="635" y="372.5" as="sourcePoint" />
            <mxPoint x="685" y="322.5" as="targetPoint" />
          </mxGeometry>
        </mxCell>
        <mxCell id="z6RoNg9yZjQIcF7Bu9v4-42" value="" style="endArrow=none;html=1;rounded=0;exitX=0.5;exitY=1;exitDx=0;exitDy=0;entryX=1;entryY=0;entryDx=0;entryDy=0;" parent="1" source="z6RoNg9yZjQIcF7Bu9v4-32" target="z6RoNg9yZjQIcF7Bu9v4-33" edge="1">
          <mxGeometry width="50" height="50" relative="1" as="geometry">
            <mxPoint x="785" y="507.5" as="sourcePoint" />
            <mxPoint x="835" y="457.5" as="targetPoint" />
          </mxGeometry>
        </mxCell>
        <mxCell id="z6RoNg9yZjQIcF7Bu9v4-44" value="" style="endArrow=none;html=1;rounded=0;entryX=0;entryY=0;entryDx=0;entryDy=0;" parent="1" target="z6RoNg9yZjQIcF7Bu9v4-38" edge="1">
          <mxGeometry width="50" height="50" relative="1" as="geometry">
            <mxPoint x="415" y="577.5" as="sourcePoint" />
            <mxPoint x="835" y="457.5" as="targetPoint" />
          </mxGeometry>
        </mxCell>
        <mxCell id="z6RoNg9yZjQIcF7Bu9v4-45" value="" style="endArrow=none;html=1;rounded=0;exitX=1;exitY=0.5;exitDx=0;exitDy=0;entryX=0;entryY=0.5;entryDx=0;entryDy=0;" parent="1" source="rDm6z0ZIHg8vzIxjKDyd-29" target="rDm6z0ZIHg8vzIxjKDyd-34" edge="1">
          <mxGeometry width="50" height="50" relative="1" as="geometry">
            <mxPoint x="2095" y="547.5" as="sourcePoint" />
            <mxPoint x="2145" y="497.5" as="targetPoint" />
          </mxGeometry>
        </mxCell>
        <mxCell id="z6RoNg9yZjQIcF7Bu9v4-46" value="" style="endArrow=none;html=1;rounded=0;entryX=0;entryY=0.5;entryDx=0;entryDy=0;" parent="1" target="rDm6z0ZIHg8vzIxjKDyd-35" edge="1">
          <mxGeometry width="50" height="50" relative="1" as="geometry">
            <mxPoint x="2045" y="557.5" as="sourcePoint" />
            <mxPoint x="2145" y="497.5" as="targetPoint" />
          </mxGeometry>
        </mxCell>
        <mxCell id="z6RoNg9yZjQIcF7Bu9v4-47" value="" style="endArrow=none;html=1;rounded=0;exitX=1;exitY=0.5;exitDx=0;exitDy=0;entryX=0;entryY=0.5;entryDx=0;entryDy=0;" parent="1" source="rDm6z0ZIHg8vzIxjKDyd-29" target="rDm6z0ZIHg8vzIxjKDyd-33" edge="1">
          <mxGeometry width="50" height="50" relative="1" as="geometry">
            <mxPoint x="2095" y="547.5" as="sourcePoint" />
            <mxPoint x="2145" y="497.5" as="targetPoint" />
          </mxGeometry>
        </mxCell>
        <mxCell id="z6RoNg9yZjQIcF7Bu9v4-48" value="" style="endArrow=none;html=1;rounded=0;exitX=1;exitY=0.5;exitDx=0;exitDy=0;entryX=0;entryY=0.5;entryDx=0;entryDy=0;" parent="1" source="rDm6z0ZIHg8vzIxjKDyd-29" target="z6RoNg9yZjQIcF7Bu9v4-1" edge="1">
          <mxGeometry width="50" height="50" relative="1" as="geometry">
            <mxPoint x="2065" y="557.5" as="sourcePoint" />
            <mxPoint x="2115" y="507.5" as="targetPoint" />
          </mxGeometry>
        </mxCell>
        <mxCell id="z6RoNg9yZjQIcF7Bu9v4-49" value="" style="endArrow=none;html=1;rounded=0;exitX=1;exitY=0.5;exitDx=0;exitDy=0;entryX=0;entryY=0.5;entryDx=0;entryDy=0;" parent="1" source="rDm6z0ZIHg8vzIxjKDyd-29" target="z6RoNg9yZjQIcF7Bu9v4-2" edge="1">
          <mxGeometry width="50" height="50" relative="1" as="geometry">
            <mxPoint x="2065" y="557.5" as="sourcePoint" />
            <mxPoint x="2115" y="507.5" as="targetPoint" />
          </mxGeometry>
        </mxCell>
        <mxCell id="z6RoNg9yZjQIcF7Bu9v4-50" value="" style="endArrow=none;html=1;rounded=0;exitX=0.5;exitY=1;exitDx=0;exitDy=0;entryX=0.5;entryY=0;entryDx=0;entryDy=0;" parent="1" source="rDm6z0ZIHg8vzIxjKDyd-46" target="rDm6z0ZIHg8vzIxjKDyd-54" edge="1">
          <mxGeometry width="50" height="50" relative="1" as="geometry">
            <mxPoint x="1475" y="785" as="sourcePoint" />
            <mxPoint x="1525" y="735" as="targetPoint" />
          </mxGeometry>
        </mxCell>
        <mxCell id="z6RoNg9yZjQIcF7Bu9v4-51" value="" style="endArrow=none;html=1;rounded=0;exitX=0.5;exitY=1;exitDx=0;exitDy=0;entryX=0.5;entryY=0;entryDx=0;entryDy=0;" parent="1" source="rDm6z0ZIHg8vzIxjKDyd-46" target="rDm6z0ZIHg8vzIxjKDyd-57" edge="1">
          <mxGeometry width="50" height="50" relative="1" as="geometry">
            <mxPoint x="1475" y="785" as="sourcePoint" />
            <mxPoint x="1525" y="735" as="targetPoint" />
          </mxGeometry>
        </mxCell>
        <mxCell id="z6RoNg9yZjQIcF7Bu9v4-52" value="" style="endArrow=none;html=1;rounded=0;exitX=0.5;exitY=1;exitDx=0;exitDy=0;entryX=0.415;entryY=-0.05;entryDx=0;entryDy=0;entryPerimeter=0;" parent="1" source="rDm6z0ZIHg8vzIxjKDyd-46" target="rDm6z0ZIHg8vzIxjKDyd-58" edge="1">
          <mxGeometry width="50" height="50" relative="1" as="geometry">
            <mxPoint x="1475" y="785" as="sourcePoint" />
            <mxPoint x="1525" y="735" as="targetPoint" />
          </mxGeometry>
        </mxCell>
        <mxCell id="z6RoNg9yZjQIcF7Bu9v4-53" value="" style="endArrow=none;html=1;rounded=0;exitX=0.5;exitY=1;exitDx=0;exitDy=0;entryX=0.5;entryY=0;entryDx=0;entryDy=0;" parent="1" source="rDm6z0ZIHg8vzIxjKDyd-46" target="rDm6z0ZIHg8vzIxjKDyd-56" edge="1">
          <mxGeometry width="50" height="50" relative="1" as="geometry">
            <mxPoint x="1475" y="785" as="sourcePoint" />
            <mxPoint x="1525" y="735" as="targetPoint" />
          </mxGeometry>
        </mxCell>
        <mxCell id="z6RoNg9yZjQIcF7Bu9v4-54" value="" style="endArrow=none;html=1;rounded=0;exitX=0.5;exitY=1;exitDx=0;exitDy=0;entryX=0.5;entryY=0;entryDx=0;entryDy=0;" parent="1" source="rDm6z0ZIHg8vzIxjKDyd-46" target="rDm6z0ZIHg8vzIxjKDyd-59" edge="1">
          <mxGeometry width="50" height="50" relative="1" as="geometry">
            <mxPoint x="1475" y="785" as="sourcePoint" />
            <mxPoint x="1525" y="735" as="targetPoint" />
          </mxGeometry>
        </mxCell>
        <mxCell id="z6RoNg9yZjQIcF7Bu9v4-55" value="" style="endArrow=none;html=1;rounded=0;exitX=0.5;exitY=0;exitDx=0;exitDy=0;entryX=0.5;entryY=1;entryDx=0;entryDy=0;" parent="1" source="rDm6z0ZIHg8vzIxjKDyd-17" target="rDm6z0ZIHg8vzIxjKDyd-23" edge="1">
          <mxGeometry width="50" height="50" relative="1" as="geometry">
            <mxPoint x="1435" y="195" as="sourcePoint" />
            <mxPoint x="1485" y="145" as="targetPoint" />
          </mxGeometry>
        </mxCell>
        <mxCell id="z6RoNg9yZjQIcF7Bu9v4-56" value="" style="endArrow=none;html=1;rounded=0;exitX=0.5;exitY=0;exitDx=0;exitDy=0;entryX=0.5;entryY=1;entryDx=0;entryDy=0;" parent="1" source="rDm6z0ZIHg8vzIxjKDyd-17" target="rDm6z0ZIHg8vzIxjKDyd-25" edge="1">
          <mxGeometry width="50" height="50" relative="1" as="geometry">
            <mxPoint x="1435" y="175" as="sourcePoint" />
            <mxPoint x="1485" y="125" as="targetPoint" />
          </mxGeometry>
        </mxCell>
        <mxCell id="z6RoNg9yZjQIcF7Bu9v4-57" value="" style="endArrow=none;html=1;rounded=0;entryX=0.5;entryY=1;entryDx=0;entryDy=0;" parent="1" target="rDm6z0ZIHg8vzIxjKDyd-27" edge="1">
          <mxGeometry width="50" height="50" relative="1" as="geometry">
            <mxPoint x="1475" y="235" as="sourcePoint" />
            <mxPoint x="1485" y="125" as="targetPoint" />
          </mxGeometry>
        </mxCell>
        <mxCell id="z6RoNg9yZjQIcF7Bu9v4-58" value="" style="endArrow=none;html=1;rounded=0;exitX=0.5;exitY=0;exitDx=0;exitDy=0;entryX=0.5;entryY=1;entryDx=0;entryDy=0;" parent="1" source="rDm6z0ZIHg8vzIxjKDyd-17" target="rDm6z0ZIHg8vzIxjKDyd-26" edge="1">
          <mxGeometry width="50" height="50" relative="1" as="geometry">
            <mxPoint x="1435" y="175" as="sourcePoint" />
            <mxPoint x="1485" y="125" as="targetPoint" />
          </mxGeometry>
        </mxCell>
        <mxCell id="z6RoNg9yZjQIcF7Bu9v4-59" value="" style="endArrow=none;html=1;rounded=0;exitX=0.5;exitY=0;exitDx=0;exitDy=0;entryX=0.5;entryY=1;entryDx=0;entryDy=0;" parent="1" source="rDm6z0ZIHg8vzIxjKDyd-17" target="rDm6z0ZIHg8vzIxjKDyd-24" edge="1">
          <mxGeometry width="50" height="50" relative="1" as="geometry">
            <mxPoint x="1435" y="175" as="sourcePoint" />
            <mxPoint x="1485" y="125" as="targetPoint" />
          </mxGeometry>
        </mxCell>
        <mxCell id="z6RoNg9yZjQIcF7Bu9v4-60" value="Books" style="rhombus;whiteSpace=wrap;html=1;fillColor=#d5e8d4;strokeColor=#82b366;" parent="1" vertex="1">
          <mxGeometry x="1205" y="365" width="80" height="80" as="geometry" />
        </mxCell>
        <mxCell id="z6RoNg9yZjQIcF7Bu9v4-61" value="Has a" style="rhombus;whiteSpace=wrap;html=1;fillColor=#d5e8d4;strokeColor=#82b366;" parent="1" vertex="1">
          <mxGeometry x="1675" y="375" width="80" height="80" as="geometry" />
        </mxCell>
        <mxCell id="z6RoNg9yZjQIcF7Bu9v4-62" value="Gives a" style="rhombus;whiteSpace=wrap;html=1;fillColor=#d5e8d4;strokeColor=#82b366;" parent="1" vertex="1">
          <mxGeometry x="1215" y="675" width="80" height="80" as="geometry" />
        </mxCell>
        <mxCell id="z6RoNg9yZjQIcF7Bu9v4-63" value="Has a" style="rhombus;whiteSpace=wrap;html=1;fillColor=#d5e8d4;strokeColor=#82b366;" parent="1" vertex="1">
          <mxGeometry x="1675" y="675" width="80" height="80" as="geometry" />
        </mxCell>
        <mxCell id="z6RoNg9yZjQIcF7Bu9v4-66" value="" style="endArrow=none;html=1;rounded=0;exitX=1;exitY=0.25;exitDx=0;exitDy=0;entryX=0;entryY=1;entryDx=0;entryDy=0;" parent="1" source="z6RoNg9yZjQIcF7Bu9v4-14" target="z6RoNg9yZjQIcF7Bu9v4-60" edge="1">
          <mxGeometry width="50" height="50" relative="1" as="geometry">
            <mxPoint x="935" y="485" as="sourcePoint" />
            <mxPoint x="985" y="435" as="targetPoint" />
          </mxGeometry>
        </mxCell>
        <mxCell id="z6RoNg9yZjQIcF7Bu9v4-68" value="" style="endArrow=none;html=1;rounded=0;entryX=0.25;entryY=1;entryDx=0;entryDy=0;exitX=1;exitY=0;exitDx=0;exitDy=0;" parent="1" source="z6RoNg9yZjQIcF7Bu9v4-60" target="rDm6z0ZIHg8vzIxjKDyd-17" edge="1">
          <mxGeometry width="50" height="50" relative="1" as="geometry">
            <mxPoint x="1155" y="635" as="sourcePoint" />
            <mxPoint x="1205" y="585" as="targetPoint" />
          </mxGeometry>
        </mxCell>
        <mxCell id="z6RoNg9yZjQIcF7Bu9v4-69" value="" style="endArrow=none;html=1;rounded=0;entryX=0.75;entryY=1;entryDx=0;entryDy=0;exitX=0;exitY=0;exitDx=0;exitDy=0;" parent="1" source="z6RoNg9yZjQIcF7Bu9v4-61" target="rDm6z0ZIHg8vzIxjKDyd-17" edge="1">
          <mxGeometry width="50" height="50" relative="1" as="geometry">
            <mxPoint x="1305" y="435" as="sourcePoint" />
            <mxPoint x="1355" y="385" as="targetPoint" />
          </mxGeometry>
        </mxCell>
        <mxCell id="z6RoNg9yZjQIcF7Bu9v4-70" value="" style="endArrow=none;html=1;rounded=0;entryX=1;entryY=1;entryDx=0;entryDy=0;exitX=0.25;exitY=0;exitDx=0;exitDy=0;" parent="1" source="rDm6z0ZIHg8vzIxjKDyd-29" target="z6RoNg9yZjQIcF7Bu9v4-61" edge="1">
          <mxGeometry width="50" height="50" relative="1" as="geometry">
            <mxPoint x="1875" y="455" as="sourcePoint" />
            <mxPoint x="1745" y="445" as="targetPoint" />
          </mxGeometry>
        </mxCell>
        <mxCell id="z6RoNg9yZjQIcF7Bu9v4-71" value="" style="endArrow=none;html=1;rounded=0;entryX=0.25;entryY=1;entryDx=0;entryDy=0;exitX=1;exitY=0;exitDx=0;exitDy=0;" parent="1" source="z6RoNg9yZjQIcF7Bu9v4-63" target="rDm6z0ZIHg8vzIxjKDyd-29" edge="1">
          <mxGeometry width="50" height="50" relative="1" as="geometry">
            <mxPoint x="1365" y="415" as="sourcePoint" />
            <mxPoint x="1415" y="365" as="targetPoint" />
          </mxGeometry>
        </mxCell>
        <mxCell id="z6RoNg9yZjQIcF7Bu9v4-72" value="" style="endArrow=none;html=1;rounded=0;entryX=0;entryY=1;entryDx=0;entryDy=0;exitX=0.75;exitY=0;exitDx=0;exitDy=0;" parent="1" source="rDm6z0ZIHg8vzIxjKDyd-46" target="z6RoNg9yZjQIcF7Bu9v4-63" edge="1">
          <mxGeometry width="50" height="50" relative="1" as="geometry">
            <mxPoint x="1445" y="595" as="sourcePoint" />
            <mxPoint x="1495" y="545" as="targetPoint" />
          </mxGeometry>
        </mxCell>
        <mxCell id="z6RoNg9yZjQIcF7Bu9v4-73" value="" style="endArrow=none;html=1;rounded=0;exitX=1;exitY=1;exitDx=0;exitDy=0;entryX=0.25;entryY=0;entryDx=0;entryDy=0;" parent="1" source="z6RoNg9yZjQIcF7Bu9v4-62" target="rDm6z0ZIHg8vzIxjKDyd-46" edge="1">
          <mxGeometry width="50" height="50" relative="1" as="geometry">
            <mxPoint x="1445" y="655" as="sourcePoint" />
            <mxPoint x="1495" y="605" as="targetPoint" />
          </mxGeometry>
        </mxCell>
        <mxCell id="z6RoNg9yZjQIcF7Bu9v4-74" value="" style="endArrow=none;html=1;rounded=0;exitX=0;exitY=0;exitDx=0;exitDy=0;entryX=1;entryY=0.75;entryDx=0;entryDy=0;" parent="1" source="z6RoNg9yZjQIcF7Bu9v4-62" target="z6RoNg9yZjQIcF7Bu9v4-14" edge="1">
          <mxGeometry width="50" height="50" relative="1" as="geometry">
            <mxPoint x="1445" y="655" as="sourcePoint" />
            <mxPoint x="1495" y="605" as="targetPoint" />
          </mxGeometry>
        </mxCell>
      </root>
    </mxGraphModel>
  </diagram>
</mxfile>
